# Blender v3.0.0 OBJ File: ''
# www.blender.org
mtllib floor.mtl
o FloorNode.001
v -14.338172 0.200000 4.149820
v 14.338174 0.200000 4.149820
v 14.338175 0.200000 -4.149817
v -14.338174 0.200000 -4.149817
v -14.338172 0.000000 4.149820
v 14.338174 0.000000 4.149820
v 14.338175 0.000000 -4.149817
v -14.338174 0.000000 -4.149817
vt 3.637542 1.868370
vt 0.304684 -13.879274
vt 3.637541 -13.879274
vt 0.304685 1.868374
vt 3.747408 0.964507
vt 3.642770 -5.270461
vt 3.752645 -5.270287
vt 3.637542 0.964335
vt 3.806040 9.573111
vt 3.696175 9.572938
vt 3.800814 15.807295
vt 3.690960 15.807118
vt 3.806040 -13.879105
vt 3.696164 -13.879274
vt 0.304684 1.868374
vt -3.028174 1.868374
vt 0.304684 -13.879274
vt -3.028174 -13.879274
vn 0.0000 1.0000 0.0000
vn -1.0000 0.0000 0.0000
vn 0.0000 0.0000 1.0000
vn 1.0000 0.0000 0.0000
vn 0.0000 0.0000 -1.0000
vn 0.0000 -1.0000 0.0000
g FloorNode.001_FloorNode.001_FLOOR
usemtl FLOOR
s off
f 2/1/1 4/2/1 1/3/1
f 3/4/1 4/2/1 2/1/1
f 5/5/2 4/6/2 8/7/2
f 5/5/2 1/8/2 4/6/2
f 5/5/3 6/9/3 2/10/3
f 2/10/3 1/8/3 5/5/3
f 6/9/4 7/11/4 2/10/4
f 7/11/4 3/12/4 2/10/4
f 7/13/5 8/7/5 3/14/5
f 8/7/5 4/6/5 3/14/5
f 5/15/6 8/16/6 6/17/6
f 6/17/6 8/16/6 7/18/6
