# Blender v3.0.0 OBJ File: 'untitled.blend'
# www.blender.org
mtllib ground.mtl
o Cube
v -26.815622 -0.851718 30.793777
v -26.815622 0.056785 30.793777
v -26.815622 -0.851718 -29.525290
v -26.815622 0.056785 -29.525290
v 33.503448 -0.851718 30.793777
v 33.503448 0.056785 30.793777
v 11.978099 -0.851718 -14.031178
v 11.978099 0.056785 -14.031178
v -18.810711 -0.060330 11.223203
v -18.810711 0.355129 11.223203
v -25.004835 -0.060330 -6.081583
v -25.004835 0.355129 -6.081583
v -9.787585 0.150000 6.941570
v -9.787585 -0.150000 6.941570
v -7.700047 -0.060330 -12.275709
v -7.700047 0.355129 -12.275709
v -21.907772 -0.060330 2.570810
v -21.907772 0.355129 2.570810
v -6.507392 -0.060330 -8.943735
v -6.507392 0.355129 -8.943735
v -16.352440 -0.060330 -9.178647
v -16.352440 0.355129 -9.178647
v -14.307090 -0.060330 9.611164
v -14.307090 0.355129 9.611164
v -19.308559 0.355129 -4.361649
v -19.308559 -0.060330 -4.361649
v -9.787585 -0.150000 18.580761
v -9.787585 0.150000 18.580761
v 9.787585 -0.150000 6.941570
v 9.787585 0.150000 6.941570
v 9.787585 -0.150000 18.580761
v 9.787585 0.150000 18.580761
v 11.978099 -0.851718 -29.525290
v 11.978099 0.056785 -29.525290
v 3.343912 -0.851718 30.793777
v 3.343912 0.056785 30.793777
v -26.815622 -0.851718 0.634244
v -26.815622 0.056785 0.634244
v 33.503448 -0.851718 -14.031178
v 33.503448 0.056785 -14.031178
v -67.461281 -1.134712 23.736563
v -67.461281 -0.504102 23.736563
v -21.181320 -1.134712 -67.714119
v -21.181320 -0.504102 -67.714119
v 23.989395 -1.134712 70.016518
v 23.989395 -0.504102 70.016518
v 25.746546 -1.134712 -14.458671
v 25.746546 -0.504102 -14.458671
v 37.634441 -1.134712 -37.949539
v 37.634441 -0.504102 -37.949539
v -21.735941 -1.134712 46.876541
v -21.735941 -0.504102 46.876541
v -44.321301 -1.134712 -21.988775
v -44.321301 -0.504102 -21.988775
v 58.381451 -1.134712 2.056704
v 58.381451 -0.504102 2.056704
vt 0.375000 0.125000
vt 0.625000 0.125000
vt 0.625000 0.250000
vt 0.375000 0.250000
vt 0.375000 0.375000
vt 0.625000 0.375000
vt 0.625000 0.500000
vt 0.375000 0.500000
vt 0.375000 0.625000
vt 0.625000 0.625000
vt 0.625000 0.750000
vt 0.375000 0.750000
vt 0.375000 0.875000
vt 0.625000 0.875000
vt 0.625000 1.000000
vt 0.375000 1.000000
vt 0.250000 0.625000
vt 0.250000 0.750000
vt 0.750000 0.625000
vt 0.875000 0.625000
vt 0.875000 0.750000
vt 0.750000 0.750000
vt 0.375000 0.125000
vt 0.625000 0.125000
vt 0.625000 0.250000
vt 0.375000 0.250000
vt 0.375000 0.375000
vt 0.625000 0.375000
vt 0.625000 0.500000
vt 0.375000 0.500000
vt 0.375000 0.000000
vt 0.625000 0.000000
vt 0.625000 0.250000
vt 0.375000 0.250000
vt 0.375000 0.875000
vt 0.625000 0.875000
vt 0.625000 1.000000
vt 0.375000 1.000000
vt 0.750000 0.625000
vt 0.250000 0.625000
vt 0.375000 0.625000
vt 0.625000 0.625000
vt 0.875000 0.625000
vt 0.875000 0.750000
vt 0.750000 0.750000
vt 0.750000 0.500000
vt 0.875000 0.500000
vt 0.250000 0.500000
vt 0.375000 0.000000
vt 0.625000 0.000000
vt 0.125000 0.500000
vt 0.125000 0.625000
vt 0.250000 0.750000
vt 0.125000 0.750000
vt 0.625000 0.500000
vt 0.375000 0.500000
vt 0.625000 0.750000
vt 0.375000 0.750000
vt 0.625000 1.000000
vt 0.375000 1.000000
vt 0.125000 0.500000
vt 0.125000 0.750000
vt 0.875000 0.500000
vt 0.875000 0.750000
vt 0.125000 0.625000
vt 0.125000 0.750000
vt 0.125000 0.500000
vt 0.250000 0.500000
vt 0.750000 0.500000
vt 0.875000 0.500000
vt 0.375000 0.000000
vt 0.625000 0.000000
vt 0.375000 0.125000
vt 0.625000 0.125000
vt 0.625000 0.250000
vt 0.375000 0.250000
vt 0.375000 0.375000
vt 0.625000 0.375000
vt 0.625000 0.500000
vt 0.375000 0.500000
vt 0.375000 0.625000
vt 0.625000 0.625000
vt 0.625000 0.750000
vt 0.375000 0.750000
vt 0.375000 0.875000
vt 0.625000 0.875000
vt 0.625000 1.000000
vt 0.375000 1.000000
vt 0.250000 0.625000
vt 0.250000 0.750000
vt 0.750000 0.625000
vt 0.875000 0.625000
vt 0.875000 0.750000
vt 0.750000 0.750000
vt 0.125000 0.625000
vt 0.125000 0.750000
vt 0.125000 0.500000
vt 0.250000 0.500000
vt 0.750000 0.500000
vt 0.875000 0.500000
vt 0.375000 0.000000
vt 0.625000 0.000000
vn -1.0000 0.0000 0.0000
vn 1.0000 0.0000 0.0000
vn 0.0000 0.0000 1.0000
vn 0.0000 -1.0000 0.0000
vn 0.0000 1.0000 0.0000
vn -0.9415 0.0000 0.3370
vn -0.3370 0.0000 -0.9415
vn 0.3370 0.0000 0.9415
vn 0.9415 0.0000 -0.3370
vn 0.0000 0.0000 -1.0000
vn -0.8923 0.0000 -0.4515
vn 0.8923 0.0000 0.4515
vn -0.4515 0.0000 0.8923
vn 0.4515 0.0000 -0.8923
usemtl None
s off
f 37/1/1 38/2/1 4/3/1 3/4/1
f 33/5/2 34/6/2 8/7/2 7/8/2
f 39/9/2 40/10/2 6/11/2 5/12/2
f 35/13/3 36/14/3 2/15/3 1/16/3
f 7/17/4 39/9/4 5/12/4 35/18/4
f 8/19/5 38/20/5 2/21/5 36/22/5
f 17/23/6 18/24/6 12/25/6 11/26/6
f 21/27/7 22/28/7 16/29/7 15/30/7
f 14/31/2 13/32/2 28/33/2 27/34/2
f 23/35/8 24/36/8 10/37/8 9/38/8
f 25/39/8 26/40/8 19/41/8 20/42/8
f 25/39/5 18/43/5 10/44/5 24/45/5
f 22/46/5 12/47/5 18/43/5 25/39/5
f 21/48/4 15/30/4 19/41/4 26/40/4
f 15/30/9 16/29/9 20/42/9 19/41/9
f 9/49/6 10/50/6 18/24/6 17/23/6
f 11/51/4 21/48/4 26/40/4 17/52/4
f 16/29/5 22/46/5 25/39/5 20/42/5
f 26/40/9 25/39/9 24/36/9 23/53/9
f 17/52/4 26/40/4 23/53/4 9/54/4
f 27/34/10 28/33/10 32/55/10 31/56/10
f 11/26/7 12/25/7 22/28/7 21/27/7
f 31/56/1 32/55/1 30/57/1 29/58/1
f 29/58/3 30/57/3 13/59/3 14/60/3
f 27/61/5 31/56/5 29/58/5 14/62/5
f 32/55/4 28/63/4 13/64/4 30/57/4
f 40/10/5 8/19/5 36/22/5 6/11/5
f 37/65/4 7/17/4 35/18/4 1/66/4
f 5/12/3 6/11/3 36/14/3 35/13/3
f 3/4/10 4/3/10 34/6/10 33/5/10
f 3/67/4 33/68/4 7/17/4 37/65/4
f 34/69/5 4/70/5 38/20/5 8/19/5
f 7/8/10 8/7/10 40/10/10 39/9/10
f 1/71/1 2/72/1 38/2/1 37/1/1
f 53/73/11 54/74/11 44/75/11 43/76/11
f 49/77/12 50/78/12 48/79/12 47/80/12
f 55/81/12 56/82/12 46/83/12 45/84/12
f 51/85/13 52/86/13 42/87/13 41/88/13
f 47/89/4 55/81/4 45/84/4 51/90/4
f 48/91/5 54/92/5 42/93/5 52/94/5
f 56/82/5 48/91/5 52/94/5 46/83/5
f 53/95/4 47/89/4 51/90/4 41/96/4
f 45/84/13 46/83/13 52/86/13 51/85/13
f 43/76/14 44/75/14 50/78/14 49/77/14
f 43/97/4 49/98/4 47/89/4 53/95/4
f 50/99/5 44/100/5 54/92/5 48/91/5
f 47/80/14 48/79/14 56/82/14 55/81/14
f 41/101/11 42/102/11 54/74/11 53/73/11
